<svg width="1480" height="110" viewBox="0 0 1280 110" fill="none" xmlns="http://www.w3.org/2000/svg">
<rect x="0.1" y="0.1" width="1479.8" height="109.8" fill="white" stroke="black" stroke-width="0.2"/>
<path d="M98.2455 53.7464C97.161 53.7464 96.1367 53.4838 95.2372 53.0233L100.307 50.0968L92.0051 45.3025C92.8487 42.6859 95.3233 40.7922 98.2455 40.7922C101.865 40.7922 104.796 43.6929 104.796 47.2693C104.796 50.8457 101.865 53.7464 98.2455 53.7464Z" fill="#121535"/>
<path d="M88.8635 56.7031V43.4907L92.0052 45.3026C91.8073 45.9223 91.6997 46.5808 91.6997 47.2694C91.6997 49.7741 93.1371 51.9475 95.2416 53.0234L88.8678 56.7031H88.8635Z" fill="#121535"/>
<path d="M40.8902 68.0821L40.6621 63.9806C42.4395 63.9806 43.7608 63.5589 44.6258 62.7153C45.4909 61.8718 45.9212 60.6022 45.9212 58.9023V44.0287H50.6166V58.8463C50.6166 61.0412 50.2895 62.8186 49.631 64.1743C48.9769 65.53 47.9354 66.5241 46.5065 67.1482C45.0777 67.7722 43.2056 68.0864 40.8902 68.0864V68.0821Z" fill="#121535"/>
<path d="M64.724 67.3547C62.9853 67.3547 61.3844 67.0578 59.9125 66.4639C58.4449 65.87 57.1667 65.0351 56.0865 63.9634C55.002 62.8918 54.1671 61.6351 53.5688 60.1891C52.9749 58.7473 52.678 57.1722 52.678 55.4636C52.678 53.7551 52.9749 52.1799 53.5688 50.7296C54.1628 49.2792 55.002 48.0225 56.0865 46.9552C57.1667 45.8879 58.4449 45.0573 59.9125 44.4634C61.3801 43.8695 62.9853 43.5725 64.724 43.5725C66.4627 43.5725 68.0637 43.8695 69.527 44.4634C70.9902 45.0573 72.2598 45.8879 73.3314 46.9552C74.403 48.0225 75.238 49.2792 75.8405 50.7296C76.443 52.1799 76.74 53.7551 76.74 55.4636C76.74 57.1722 76.4387 58.7473 75.8405 60.1891C75.2423 61.6308 74.403 62.8918 73.3314 63.9634C72.2598 65.0351 70.9902 65.87 69.527 66.4639C68.0637 67.0578 66.4627 67.3547 64.724 67.3547ZM64.724 63.2533C65.7483 63.2533 66.7037 63.0553 67.5817 62.6594C68.4596 62.2635 69.2257 61.7126 69.8756 61.0068C70.5254 60.301 71.0332 59.479 71.3948 58.5365C71.7563 57.5983 71.937 56.574 71.937 55.4636C71.937 54.3533 71.7563 53.329 71.3948 52.3822C71.0332 51.4354 70.5297 50.6134 69.8756 49.9032C69.2257 49.1974 68.4596 48.6466 67.5817 48.2549C66.7037 47.8633 65.7483 47.6696 64.724 47.6696C63.6997 47.6696 62.7271 47.8676 61.8492 48.2549C60.9712 48.6466 60.2008 49.1931 59.5467 49.9032C58.8925 50.6134 58.3847 51.4354 58.0232 52.3822C57.6617 53.329 57.4809 54.3533 57.4809 55.4636C57.4809 56.574 57.6617 57.5983 58.0232 58.5451C58.3847 59.4919 58.8925 60.3182 59.5467 61.024C60.2008 61.7298 60.9712 62.2807 61.8492 62.6723C62.7271 63.064 63.6868 63.2576 64.724 63.2576V63.2533Z" fill="#121535"/>
<path d="M93.7481 66.8985H78.8057V44.0287H83.501V62.7971H93.7481V66.8985Z" fill="#121535"/>
<path d="M102.666 66.8985H97.9702V55.8552H102.666V66.8985Z" fill="#121535"/>
<path d="M127.592 66.8985H122.196L111.51 51.2847V66.8985H106.814V44.0287H112.211L122.897 59.6726V44.0287H127.592V66.8985Z" fill="#121535"/>
<path d="M141.192 66.8985H136.497V48.1301H129.757V44.0287H147.945V48.1301H141.192V66.8985Z" fill="#121535"/>
</svg>
