<svg width="427" height="214" viewBox="0 0 427 214" fill="none" xmlns="http://www.w3.org/2000/svg">
<path d="M197.769 19.5286H6.20855C2.78193 19.5341 0.00547368 22.3368 0 25.7959V156.287C0.00329475 159.747 2.78101 162.551 6.20855 162.554H197.769C201.196 162.551 203.974 159.747 203.977 156.287V25.7959C203.972 22.3368 201.196 19.5341 197.769 19.5286Z" fill="#E6E6E6"/>
<path d="M123.562 131.055H78.7482C77.428 131.057 76.3593 132.138 76.3607 133.471V204.934H125.955V133.471C125.956 132.137 124.885 131.055 123.564 131.055H123.562ZM101.306 171.659C98.3888 171.645 96.0276 169.262 96.014 166.317V158.075C96.014 155.124 98.3832 152.733 101.306 152.733C104.228 152.733 106.597 155.124 106.597 158.075V166.317C106.584 169.262 104.223 171.645 101.306 171.659Z" fill="#CCCCCC"/>
<path d="M76.2064 202.648V209.543C76.2079 210.287 76.8049 210.889 77.5417 210.891H124.773C125.509 210.887 126.105 210.286 126.109 209.543V202.648H76.2064Z" fill="#3F3D56"/>
<path d="M196.169 24.0554H7.80855C5.97373 24.0594 4.48838 25.562 4.48822 27.4142V154.67C4.49136 156.52 5.97609 158.019 7.80855 158.022H196.169C198.002 158.019 199.487 156.52 199.49 154.67V27.4142C199.49 25.562 198.004 24.0594 196.169 24.0554Z" fill="white"/>
<path d="M159.48 213.29H47.4158C46.2773 213.29 45.3544 212.358 45.3544 211.209C45.3544 211.065 45.3692 210.921 45.3986 210.78L47.1374 202.443C47.3413 201.482 48.1809 200.795 49.1544 200.791H157.742C158.715 200.795 159.555 201.482 159.759 202.443L161.498 210.78C161.732 211.905 161.019 213.008 159.905 213.245C159.765 213.275 159.623 213.29 159.48 213.29Z" fill="#CCCCCC"/>
<path d="M52.9723 202.292H50.3786C50.1417 202.292 49.9497 202.486 49.9497 202.725V203.95C49.9497 204.189 50.1417 204.383 50.3786 204.383H52.9723C53.2092 204.383 53.4012 204.189 53.4012 203.95V202.725C53.4012 202.486 53.2092 202.292 52.9723 202.292Z" fill="#E6E6E6"/>
<path d="M59.8753 202.292H57.2816C57.0448 202.292 56.8527 202.486 56.8527 202.725V203.95C56.8527 204.189 57.0448 204.383 57.2816 204.383H59.8753C60.1122 204.383 60.3042 204.189 60.3042 203.95V202.725C60.3042 202.486 60.1122 202.292 59.8753 202.292Z" fill="#E6E6E6"/>
<path d="M66.7788 202.292H64.1851C63.9483 202.292 63.7562 202.486 63.7562 202.725V203.95C63.7562 204.189 63.9483 204.383 64.1851 204.383H66.7788C67.0157 204.383 67.2077 204.189 67.2077 203.95V202.725C67.2077 202.486 67.0157 202.292 66.7788 202.292Z" fill="#E6E6E6"/>
<path d="M73.6823 202.292H71.0887C70.8518 202.292 70.6597 202.486 70.6597 202.725V203.95C70.6597 204.189 70.8518 204.383 71.0887 204.383H73.6823C73.9192 204.383 74.1112 204.189 74.1112 203.95V202.725C74.1112 202.486 73.9192 202.292 73.6823 202.292Z" fill="#E6E6E6"/>
<path d="M80.5849 202.292H77.9912C77.7544 202.292 77.5623 202.486 77.5623 202.725V203.95C77.5623 204.189 77.7544 204.383 77.9912 204.383H80.5849C80.8218 204.383 81.0138 204.189 81.0138 203.95V202.725C81.0138 202.486 80.8218 202.292 80.5849 202.292Z" fill="#E6E6E6"/>
<path d="M87.4879 202.292H84.8943C84.6574 202.292 84.4654 202.486 84.4654 202.725V203.95C84.4654 204.189 84.6574 204.383 84.8943 204.383H87.4879C87.7248 204.383 87.9169 204.189 87.9169 203.95V202.725C87.9169 202.486 87.7248 202.292 87.4879 202.292Z" fill="#E6E6E6"/>
<path d="M94.3905 202.292H91.7969C91.56 202.292 91.368 202.486 91.368 202.725V203.95C91.368 204.189 91.56 204.383 91.7969 204.383H94.3905C94.6274 204.383 94.8195 204.189 94.8195 203.95V202.725C94.8195 202.486 94.6274 202.292 94.3905 202.292Z" fill="#E6E6E6"/>
<path d="M101.294 202.292H98.6999C98.463 202.292 98.271 202.486 98.271 202.725V203.95C98.271 204.189 98.463 204.383 98.6999 204.383H101.294C101.53 204.383 101.722 204.189 101.722 203.95V202.725C101.722 202.486 101.53 202.292 101.294 202.292Z" fill="#E6E6E6"/>
<path d="M108.197 202.292H105.603C105.366 202.292 105.174 202.486 105.174 202.725V203.95C105.174 204.189 105.366 204.383 105.603 204.383H108.197C108.434 204.383 108.626 204.189 108.626 203.95V202.725C108.626 202.486 108.434 202.292 108.197 202.292Z" fill="#E6E6E6"/>
<path d="M115.099 202.292H112.506C112.269 202.292 112.077 202.486 112.077 202.725V203.95C112.077 204.189 112.269 204.383 112.506 204.383H115.099C115.336 204.383 115.528 204.189 115.528 203.95V202.725C115.528 202.486 115.336 202.292 115.099 202.292Z" fill="#E6E6E6"/>
<path d="M122.002 202.292H119.409C119.172 202.292 118.98 202.486 118.98 202.725V203.95C118.98 204.189 119.172 204.383 119.409 204.383H122.002C122.239 204.383 122.431 204.189 122.431 203.95V202.725C122.431 202.486 122.239 202.292 122.002 202.292Z" fill="#E6E6E6"/>
<path d="M128.906 202.292H126.312C126.075 202.292 125.883 202.486 125.883 202.725V203.95C125.883 204.189 126.075 204.383 126.312 204.383H128.906C129.143 204.383 129.335 204.189 129.335 203.95V202.725C129.335 202.486 129.143 202.292 128.906 202.292Z" fill="#E6E6E6"/>
<path d="M135.808 202.292H133.215C132.978 202.292 132.786 202.486 132.786 202.725V203.95C132.786 204.189 132.978 204.383 133.215 204.383H135.808C136.045 204.383 136.237 204.189 136.237 203.95V202.725C136.237 202.486 136.045 202.292 135.808 202.292Z" fill="#E6E6E6"/>
<path d="M142.711 202.292H140.117C139.88 202.292 139.688 202.486 139.688 202.725V203.95C139.688 204.189 139.88 204.383 140.117 204.383H142.711C142.948 204.383 143.14 204.189 143.14 203.95V202.725C143.14 202.486 142.948 202.292 142.711 202.292Z" fill="#E6E6E6"/>
<path d="M149.614 202.292H147.021C146.784 202.292 146.592 202.486 146.592 202.725V203.95C146.592 204.189 146.784 204.383 147.021 204.383H149.614C149.851 204.383 150.043 204.189 150.043 203.95V202.725C150.043 202.486 149.851 202.292 149.614 202.292Z" fill="#E6E6E6"/>
<path d="M156.518 202.292H153.924C153.687 202.292 153.495 202.486 153.495 202.725V203.95C153.495 204.189 153.687 204.383 153.924 204.383H156.518C156.754 204.383 156.946 204.189 156.946 203.95V202.725C156.946 202.486 156.754 202.292 156.518 202.292Z" fill="#E6E6E6"/>
<path d="M52.8909 205.776H50.2973C50.0604 205.776 49.8683 205.97 49.8683 206.209V207.434C49.8683 207.673 50.0604 207.867 50.2973 207.867H52.8909C53.1278 207.867 53.3198 207.673 53.3198 207.434V206.209C53.3198 205.97 53.1278 205.776 52.8909 205.776Z" fill="#E6E6E6"/>
<path d="M59.7944 205.776H57.2008C56.9639 205.776 56.7719 205.97 56.7719 206.209V207.434C56.7719 207.673 56.9639 207.867 57.2008 207.867H59.7944C60.0313 207.867 60.2233 207.673 60.2233 207.434V206.209C60.2233 205.97 60.0313 205.776 59.7944 205.776Z" fill="#E6E6E6"/>
<path d="M66.6979 205.776H64.1043C63.8674 205.776 63.6754 205.97 63.6754 206.209V207.434C63.6754 207.673 63.8674 207.867 64.1043 207.867H66.6979C66.9348 207.867 67.1268 207.673 67.1268 207.434V206.209C67.1268 205.97 66.9348 205.776 66.6979 205.776Z" fill="#E6E6E6"/>
<path d="M73.6001 205.776H71.0064C70.7696 205.776 70.5775 205.97 70.5775 206.209V207.434C70.5775 207.673 70.7696 207.867 71.0064 207.867H73.6001C73.837 207.867 74.029 207.673 74.029 207.434V206.209C74.029 205.97 73.837 205.776 73.6001 205.776Z" fill="#E6E6E6"/>
<path d="M80.5031 205.776H77.9095C77.6726 205.776 77.4805 205.97 77.4805 206.209V207.434C77.4805 207.673 77.6726 207.867 77.9095 207.867H80.5031C80.74 207.867 80.932 207.673 80.932 207.434V206.209C80.932 205.97 80.74 205.776 80.5031 205.776Z" fill="#E6E6E6"/>
<path d="M87.4057 205.776H84.8121C84.5752 205.776 84.3831 205.97 84.3831 206.209V207.434C84.3831 207.673 84.5752 207.867 84.8121 207.867H87.4057C87.6426 207.867 87.8346 207.673 87.8346 207.434V206.209C87.8346 205.97 87.6426 205.776 87.4057 205.776Z" fill="#E6E6E6"/>
<path d="M94.3088 205.776H91.7151C91.4782 205.776 91.2862 205.97 91.2862 206.209V207.434C91.2862 207.673 91.4782 207.867 91.7151 207.867H94.3088C94.5457 207.867 94.7377 207.673 94.7377 207.434V206.209C94.7377 205.97 94.5457 205.776 94.3088 205.776Z" fill="#E6E6E6"/>
<path d="M101.211 205.776H98.6177C98.3808 205.776 98.1888 205.97 98.1888 206.209V207.434C98.1888 207.673 98.3808 207.867 98.6177 207.867H101.211C101.448 207.867 101.64 207.673 101.64 207.434V206.209C101.64 205.97 101.448 205.776 101.211 205.776Z" fill="#E6E6E6"/>
<path d="M108.114 205.776H105.521C105.284 205.776 105.092 205.97 105.092 206.209V207.434C105.092 207.673 105.284 207.867 105.521 207.867H108.114C108.351 207.867 108.543 207.673 108.543 207.434V206.209C108.543 205.97 108.351 205.776 108.114 205.776Z" fill="#E6E6E6"/>
<path d="M115.018 205.776H112.425C112.188 205.776 111.996 205.97 111.996 206.209V207.434C111.996 207.673 112.188 207.867 112.425 207.867H115.018C115.255 207.867 115.447 207.673 115.447 207.434V206.209C115.447 205.97 115.255 205.776 115.018 205.776Z" fill="#E6E6E6"/>
<path d="M121.921 205.776H119.328C119.091 205.776 118.899 205.97 118.899 206.209V207.434C118.899 207.673 119.091 207.867 119.328 207.867H121.921C122.158 207.867 122.35 207.673 122.35 207.434V206.209C122.35 205.97 122.158 205.776 121.921 205.776Z" fill="#E6E6E6"/>
<path d="M128.824 205.776H126.23C125.993 205.776 125.801 205.97 125.801 206.209V207.434C125.801 207.673 125.993 207.867 126.23 207.867H128.824C129.061 207.867 129.253 207.673 129.253 207.434V206.209C129.253 205.97 129.061 205.776 128.824 205.776Z" fill="#E6E6E6"/>
<path d="M135.727 205.776H133.133C132.896 205.776 132.704 205.97 132.704 206.209V207.434C132.704 207.673 132.896 207.867 133.133 207.867H135.727C135.963 207.867 136.155 207.673 136.155 207.434V206.209C136.155 205.97 135.963 205.776 135.727 205.776Z" fill="#E6E6E6"/>
<path d="M142.63 205.776H140.036C139.799 205.776 139.607 205.97 139.607 206.209V207.434C139.607 207.673 139.799 207.867 140.036 207.867H142.63C142.866 207.867 143.059 207.673 143.059 207.434V206.209C143.059 205.97 142.866 205.776 142.63 205.776Z" fill="#E6E6E6"/>
<path d="M149.533 205.776H146.939C146.702 205.776 146.51 205.97 146.51 206.209V207.434C146.51 207.673 146.702 207.867 146.939 207.867H149.533C149.77 207.867 149.962 207.673 149.962 207.434V206.209C149.962 205.97 149.77 205.776 149.533 205.776Z" fill="#E6E6E6"/>
<path d="M156.436 205.776H153.842C153.605 205.776 153.413 205.97 153.413 206.209V207.434C153.413 207.673 153.605 207.867 153.842 207.867H156.436C156.673 207.867 156.865 207.673 156.865 207.434V206.209C156.865 205.97 156.673 205.776 156.436 205.776Z" fill="#E6E6E6"/>
<path d="M186.702 41.5884H10.453C10.0659 41.5798 9.75898 41.2561 9.76751 40.8653C9.77574 40.4867 10.0779 40.1817 10.453 40.1733H186.702C187.089 40.1819 187.396 40.5057 187.387 40.8964C187.379 41.2751 187.077 41.5801 186.702 41.5884Z" fill="#CACACA"/>
<path d="M50.8298 36.5608C53.0983 36.5608 54.9373 34.663 54.9373 32.3219C54.9373 29.9808 53.0983 28.083 50.8298 28.083C48.5612 28.083 46.7222 29.9808 46.7222 32.3219C46.7222 34.663 48.5612 36.5608 50.8298 36.5608Z" fill="#CCCCCC"/>
<path d="M98.3967 52.3165L97.8273 50.6375L170.626 12.4536L171.195 14.1326L98.3967 52.3165Z" fill="#3F3D56"/>
<path d="M306.282 122.641L305.753 120.989L346.518 83.6162L347.047 85.267L306.282 122.641Z" fill="#3F3D56"/>
<path d="M264.1 104.902L224.922 34.1988L226.16 33.0613L265.338 103.765L264.1 104.902Z" fill="#3F3D56"/>
<path d="M294.331 13.549L255.673 13.2874V10.8882L294.331 11.1497V13.549Z" fill="#3F3D56"/>
<path d="M362.996 24.1921H320.556C314.807 24.1921 310.146 19.03 310.146 12.6621C310.146 6.29425 314.807 1.13208 320.556 1.13208H362.996C368.745 1.13208 373.405 6.29425 373.405 12.6621C373.405 19.03 368.745 24.1921 362.996 24.1921Z" fill="#97B8D7"/>
<path d="M416.59 91.5984H374.151C368.401 91.5984 363.741 86.4362 363.741 80.0684C363.741 73.7005 368.401 68.5383 374.151 68.5383H416.59C422.339 68.5383 427 73.7005 427 80.0684C427 86.4362 422.339 91.5984 416.59 91.5984Z" fill="#CBDCEB"/>
<path d="M347.046 139.493L309.267 139.232V136.832L347.046 137.092V139.493Z" fill="#3F3D56"/>
<path d="M416.59 150.136H374.151C368.401 150.136 363.741 144.973 363.741 138.605C363.741 132.238 368.401 127.075 374.151 127.075H416.59C422.339 127.075 427 132.238 427 138.605C427 144.973 422.339 150.136 416.59 150.136Z" fill="#97B8D7"/>
<path d="M291.684 142.153H248.655C242.826 142.153 238.101 136.991 238.101 130.623C238.101 124.255 242.826 119.093 248.655 119.093H291.684C297.513 119.093 302.239 124.255 302.239 130.623C302.239 136.991 297.513 142.153 291.684 142.153Z" fill="#BAD0E4"/>
<path d="M233.697 23.3052H190.667C184.838 23.3052 180.113 18.143 180.113 11.7752C180.113 5.40729 184.838 0.245117 190.667 0.245117H233.697C239.526 0.245117 244.251 5.40729 244.251 11.7752C244.251 18.143 239.526 23.3052 233.697 23.3052Z" fill="#A8C4DE"/>
<path d="M65.3331 34.7982C65.2478 34.7982 65.1626 34.7648 65.0983 34.6984L63.2236 32.7639C63.0986 32.635 63.0986 32.429 63.2236 32.3001L65.0983 30.3657C65.2255 30.2349 65.4337 30.2328 65.5628 30.3605C65.6926 30.4886 65.6949 30.6987 65.568 30.8295L63.9181 32.532L65.568 34.2346C65.6949 34.3655 65.6926 34.5755 65.5628 34.7036C65.499 34.7667 65.4161 34.7982 65.3331 34.7982Z" fill="#CCCCCC"/>
<path d="M68.4836 34.7982C68.4007 34.7982 68.3178 34.7667 68.2539 34.7036C68.1242 34.5755 68.1219 34.3656 68.2488 34.2346L69.8986 32.532L68.2488 30.8295C68.1219 30.6987 68.1242 30.4886 68.2539 30.3605C68.3834 30.2323 68.5916 30.2347 68.7185 30.3657L70.593 32.3001C70.718 32.429 70.718 32.635 70.593 32.7639L68.7185 34.6984C68.6542 34.7648 68.569 34.7982 68.4836 34.7982Z" fill="#CCCCCC"/>
<path d="M166.555 29.9968H163.069C162.672 29.9968 162.35 30.3218 162.35 30.7231V34.2453C162.35 34.6466 162.672 34.9716 163.069 34.9716H166.555C166.953 34.9716 167.278 34.6466 167.278 34.2453V30.7231C167.278 30.3218 166.953 29.9968 166.555 29.9968Z" fill="#CCCCCC"/>
<path d="M158.014 29.9968H154.528C154.13 29.9968 153.808 30.3218 153.808 30.7231V34.2453C153.808 34.6466 154.13 34.9716 154.528 34.9716H158.014C158.411 34.9716 158.736 34.6466 158.736 34.2453V30.7231C158.736 30.3218 158.411 29.9968 158.014 29.9968Z" fill="#CCCCCC"/>
<path d="M174.604 30.1628H171.119C170.721 30.1628 170.399 30.4879 170.399 30.8892V34.4113C170.399 34.8126 170.721 35.1376 171.119 35.1376H174.604C175.002 35.1376 175.327 34.8126 175.327 34.4113V30.8892C175.327 30.4879 175.002 30.1628 174.604 30.1628Z" fill="#CCCCCC"/>
<path d="M122.064 31.5027H94.2003C93.7141 31.5027 93.3231 31.9007 93.3231 32.3882C93.3231 32.8757 93.7141 33.2737 94.2003 33.2737H122.064C122.547 33.2737 122.941 32.8757 122.941 32.3882C122.941 31.9007 122.547 31.5027 122.064 31.5027Z" fill="#CCCCCC"/>
<path d="M59.5902 72.0862H20.2071C18.8098 72.0877 17.4701 72.6382 16.482 73.6169C15.494 74.5955 14.9382 75.9224 14.9366 77.3064V98.016C14.9382 99.4 15.494 100.727 16.482 101.706C17.4701 102.684 18.8098 103.235 20.2071 103.236H59.5902C60.9876 103.235 62.3273 102.684 63.3153 101.706C64.3034 100.727 64.8592 99.4 64.8608 98.016V77.3064C64.8592 75.9224 64.3034 74.5955 63.3153 73.6169C62.3273 72.6382 60.9876 72.0877 59.5902 72.0862Z" fill="#E6E6E6"/>
<path d="M20.2067 76.3337C19.9464 76.334 19.6968 76.4366 19.5127 76.6189C19.3287 76.8012 19.2251 77.0484 19.2249 77.3062V98.0158C19.2251 98.2736 19.3287 98.5208 19.5127 98.7032C19.6968 98.8855 19.9464 98.988 20.2067 98.9883H59.5899C59.8502 98.988 60.0998 98.8855 60.2839 98.7032C60.468 98.5208 60.5715 98.2736 60.5718 98.0158V77.3062C60.5715 77.0484 60.468 76.8012 60.2839 76.6189C60.0998 76.4366 59.8502 76.334 59.5899 76.3337H20.2067Z" fill="white"/>
<path d="M39.1017 96.8051C39.0883 96.8051 39.0748 96.8047 39.0613 96.804C38.9003 96.7949 38.7473 96.7319 38.6272 96.6253C38.5072 96.5187 38.4274 96.3748 38.4009 96.2173L36.1216 82.6718L34.1091 90.6451C34.0707 90.7973 33.982 90.9324 33.8571 91.029C33.7323 91.1255 33.5785 91.1779 33.4201 91.1779H30.5794C30.3911 91.1779 30.2104 91.1038 30.0773 90.9719C29.9441 90.84 29.8693 90.6611 29.8693 90.4745C29.8693 90.288 29.9441 90.1091 30.0773 89.9772C30.2104 89.8453 30.3911 89.7712 30.5794 89.7712H32.8656L35.5718 79.0497C35.6114 78.8928 35.7043 78.7543 35.8349 78.6573C35.9656 78.5604 36.126 78.511 36.2891 78.5174C36.4522 78.5239 36.6081 78.5858 36.7305 78.6927C36.853 78.7997 36.9344 78.9452 36.9613 79.1046L39.284 92.9083L41.2593 86.061C41.3009 85.9165 41.3882 85.789 41.5083 85.6973C41.6284 85.6055 41.775 85.5542 41.9267 85.551C42.0783 85.5477 42.227 85.5926 42.3511 85.6791C42.4751 85.7657 42.5678 85.8892 42.6158 86.0318L43.8743 89.7712H46.2031C46.3914 89.7712 46.5721 89.8453 46.7053 89.9772C46.8384 90.1091 46.9133 90.288 46.9133 90.4745C46.9133 90.6611 46.8384 90.84 46.7053 90.9719C46.5721 91.1038 46.3914 91.1779 46.2031 91.1779H43.3624C43.2134 91.1779 43.0681 91.1315 42.9472 91.0452C42.8263 90.9588 42.7358 90.837 42.6887 90.697L41.9943 88.6336L39.7843 96.2949C39.7419 96.4418 39.6523 96.5711 39.5292 96.6631C39.4061 96.7552 39.256 96.805 39.1017 96.8051Z" fill="#97B8D7"/>
<path d="M47.8385 92.5551C48.9924 92.5551 49.9279 91.6286 49.9279 90.4857C49.9279 89.3428 48.9924 88.4163 47.8385 88.4163C46.6846 88.4163 45.7491 89.3428 45.7491 90.4857C45.7491 91.6286 46.6846 92.5551 47.8385 92.5551Z" fill="#3F3D56"/>
<path d="M120.731 72.0862H81.3477C79.9503 72.0877 78.6107 72.6382 77.6226 73.6169C76.6345 74.5955 76.0787 75.9224 76.0771 77.3064V98.016C76.0787 99.4 76.6345 100.727 77.6226 101.706C78.6107 102.684 79.9503 103.235 81.3477 103.236H120.731C122.128 103.235 123.468 102.684 124.456 101.706C125.444 100.727 126 99.4 126.001 98.016V77.3064C126 75.9224 125.444 74.5955 124.456 73.6169C123.468 72.6382 122.128 72.0877 120.731 72.0862Z" fill="#E6E6E6"/>
<path d="M81.3476 76.3337C81.0873 76.334 80.8377 76.4366 80.6536 76.6189C80.4695 76.8012 80.366 77.0484 80.3657 77.3062V98.0158C80.366 98.2736 80.4695 98.5208 80.6536 98.7032C80.8377 98.8855 81.0873 98.988 81.3476 98.9883H120.731C120.991 98.988 121.241 98.8855 121.425 98.7032C121.609 98.5208 121.712 98.2736 121.713 98.0158V77.3062C121.712 77.0484 121.609 76.8012 121.425 76.6189C121.241 76.4366 120.991 76.334 120.731 76.3337H81.3476Z" fill="white"/>
<path d="M101.039 88.7761C103.908 88.7761 106.234 86.4724 106.234 83.6307C106.234 80.789 103.908 78.4854 101.039 78.4854C98.1696 78.4854 95.8438 80.789 95.8438 83.6307C95.8438 86.4724 98.1696 88.7761 101.039 88.7761Z" fill="#FABB84"/>
<path d="M101.038 89.6335C102.875 89.6335 104.637 90.3563 105.936 91.6429C107.235 92.9295 107.965 94.6745 107.965 96.494V96.837H94.1118V96.494C94.1118 94.6745 94.8416 92.9295 96.1405 91.6429C97.4395 90.3563 99.2013 89.6335 101.038 89.6335Z" fill="#FABB84"/>
<path d="M90.4758 91.3488C92.4841 91.3488 94.1122 89.7362 94.1122 87.747C94.1122 85.7578 92.4841 84.1453 90.4758 84.1453C88.4674 84.1453 86.8394 85.7578 86.8394 87.747C86.8394 89.7362 88.4674 91.3488 90.4758 91.3488Z" fill="#3F3D56"/>
<path d="M94.0375 93.0034C93.3386 92.3895 92.4755 91.9888 91.5521 91.8493C90.6286 91.7098 89.6842 91.8376 88.8323 92.2172C87.9805 92.5968 87.2575 93.2121 86.7504 93.9891C86.2433 94.766 85.9736 95.6716 85.9738 96.5968V96.8369H93.0735V96.4939C93.072 95.2657 93.405 94.0598 94.0375 93.0034Z" fill="#3F3D56"/>
<path d="M111.602 91.3488C113.61 91.3488 115.238 89.7362 115.238 87.747C115.238 85.7578 113.61 84.1453 111.602 84.1453C109.594 84.1453 107.965 85.7578 107.965 87.747C107.965 89.7362 109.594 91.3488 111.602 91.3488Z" fill="#3F3D56"/>
<path d="M108.041 93.0034C108.739 92.3895 109.603 91.9888 110.526 91.8493C111.449 91.7098 112.394 91.8376 113.246 92.2172C114.098 92.5968 114.821 93.2121 115.328 93.9891C115.835 94.766 116.104 95.6716 116.104 96.5968V96.8369H109.005V96.4939C109.006 95.2657 108.673 94.0598 108.041 93.0034Z" fill="#3F3D56"/>
<path d="M181.871 72.0862H142.488C141.091 72.0877 139.751 72.6382 138.763 73.6169C137.775 74.5955 137.219 75.9224 137.218 77.3064V98.016C137.219 99.4 137.775 100.727 138.763 101.706C139.751 102.684 141.091 103.235 142.488 103.236H181.871C183.269 103.235 184.608 102.684 185.596 101.706C186.584 100.727 187.14 99.4 187.142 98.016V77.3064C187.14 75.9224 186.584 74.5955 185.596 73.6169C184.608 72.6382 183.269 72.0877 181.871 72.0862Z" fill="#E6E6E6"/>
<path d="M142.489 76.3337C142.228 76.334 141.979 76.4366 141.795 76.6189C141.61 76.8012 141.507 77.0484 141.507 77.3062V98.0158C141.507 98.2736 141.61 98.5208 141.795 98.7032C141.979 98.8855 142.228 98.988 142.489 98.9883H181.872C182.132 98.988 182.382 98.8855 182.566 98.7032C182.75 98.5208 182.853 98.2736 182.854 98.0158V77.3062C182.853 77.0484 182.75 76.8012 182.566 76.6189C182.382 76.4366 182.132 76.334 181.872 76.3337H142.489Z" fill="white"/>
<path d="M161.52 97.238C161.435 97.238 161.352 97.2215 161.273 97.1894C161.195 97.1573 161.124 97.1103 161.064 97.051C161.004 96.9917 160.957 96.9213 160.925 96.8439C160.892 96.7664 160.875 96.6834 160.875 96.5996V91.492C160.876 91.3229 160.944 91.1608 161.065 91.0413C161.186 90.9218 161.349 90.8547 161.52 90.8547C161.691 90.8547 161.855 90.9218 161.975 91.0413C162.096 91.1608 162.164 91.3229 162.165 91.492V96.5996C162.165 96.6834 162.148 96.7664 162.116 96.8439C162.083 96.9214 162.036 96.9917 161.976 97.051C161.916 97.1103 161.845 97.1573 161.767 97.1894C161.689 97.2215 161.605 97.238 161.52 97.238Z" fill="#EE6A76"/>
<path d="M163.776 94.6841H159.264C159.093 94.6841 158.929 94.6169 158.808 94.4971C158.687 94.3774 158.619 94.215 158.619 94.0457C158.619 93.8763 158.687 93.714 158.808 93.5942C158.929 93.4745 159.093 93.4072 159.264 93.4072H163.776C163.947 93.4072 164.111 93.4745 164.232 93.5942C164.353 93.714 164.421 93.8763 164.421 94.0457C164.421 94.215 164.353 94.3774 164.232 94.4971C164.111 94.6169 163.947 94.6841 163.776 94.6841Z" fill="#EE6A76"/>
<path d="M170.223 82.5536C170.138 82.5536 170.054 82.5371 169.976 82.505C169.898 82.4729 169.827 82.4259 169.767 82.3666C169.707 82.3073 169.659 82.2369 169.627 82.1595C169.595 82.082 169.578 81.999 169.578 81.9151V79.3614H167C166.915 79.3614 166.831 79.3448 166.753 79.3128C166.675 79.2807 166.604 79.2337 166.544 79.1744C166.484 79.1151 166.436 79.0447 166.404 78.9672C166.372 78.8898 166.355 78.8068 166.355 78.7229C166.355 78.6391 166.372 78.5561 166.404 78.4786C166.436 78.4011 166.484 78.3308 166.544 78.2715C166.604 78.2122 166.675 78.1652 166.753 78.1331C166.831 78.101 166.915 78.0845 167 78.0845H170.223C170.307 78.0845 170.391 78.101 170.469 78.1331C170.547 78.1652 170.619 78.2122 170.678 78.2715C170.738 78.3308 170.786 78.4011 170.818 78.4786C170.851 78.5561 170.867 78.6391 170.867 78.7229V81.9151C170.867 81.999 170.851 82.082 170.818 82.1595C170.786 82.2369 170.738 82.3073 170.678 82.3666C170.619 82.4259 170.547 82.4729 170.469 82.505C170.391 82.5371 170.307 82.5536 170.223 82.5536Z" fill="#EE6A76"/>
<path d="M166.326 83.2209C166.198 83.2209 166.074 83.1835 165.968 83.1133C165.862 83.0432 165.779 82.9434 165.73 82.8268C165.681 82.7101 165.669 82.5818 165.693 82.4579C165.718 82.3341 165.78 82.2203 165.87 82.131L169.766 78.2716C169.887 78.1521 170.051 78.0851 170.222 78.0852C170.393 78.0853 170.557 78.1526 170.677 78.2722C170.798 78.3918 170.866 78.5541 170.866 78.7232C170.866 78.8924 170.799 79.0547 170.678 79.1745L166.781 83.0339C166.722 83.0933 166.651 83.1404 166.572 83.1725C166.494 83.2046 166.41 83.221 166.326 83.2209Z" fill="#EE6A76"/>
<path d="M161.52 91.4918C160.309 91.4918 159.125 91.1361 158.118 90.4696C157.111 89.8032 156.326 88.8559 155.863 87.7476C155.399 86.6393 155.278 85.4198 155.514 84.2433C155.751 83.0668 156.334 81.986 157.19 81.1378C158.047 80.2896 159.138 79.7119 160.326 79.4779C161.514 79.2438 162.745 79.364 163.864 79.823C164.983 80.2821 165.939 81.0595 166.612 82.0569C167.285 83.0543 167.644 84.227 167.644 85.4266C167.642 87.0346 166.996 88.5763 165.848 89.7133C164.7 90.8504 163.144 91.49 161.52 91.4918ZM161.52 80.6382C160.564 80.6382 159.63 80.9191 158.835 81.4452C158.04 81.9714 157.42 82.7192 157.054 83.5941C156.688 84.4691 156.592 85.4319 156.779 86.3607C156.965 87.2896 157.426 88.1428 158.102 88.8124C158.778 89.4821 159.639 89.9381 160.577 90.1229C161.515 90.3077 162.487 90.2128 163.37 89.8504C164.254 89.488 165.009 88.8743 165.54 88.0868C166.071 87.2994 166.355 86.3736 166.355 85.4266C166.353 84.1571 165.844 82.94 164.937 82.0423C164.031 81.1446 162.802 80.6397 161.52 80.6382Z" fill="#3F3D56"/>
<line y1="-1" x2="68.8338" y2="-1" transform="matrix(0.882554 0.47021 -0.468037 0.883709 171.327 94.041)" stroke="#3F3D56" stroke-width="2"/>
<line x1="43.0511" y1="114.571" x2="152.876" y2="114.571" stroke="#E6E6E6" stroke-width="3"/>
<line x1="47.4442" y1="122.502" x2="146.726" y2="122.502" stroke="#E6E6E6" stroke-width="3"/>
<line x1="48.3231" y1="138.364" x2="147.605" y2="138.364" stroke="#E6E6E6" stroke-width="3"/>
<line x1="44.8089" y1="130.433" x2="152.877" y2="130.433" stroke="#E6E6E6" stroke-width="3"/>
</svg>
