<svg width="120" height="36" viewBox="0 0 120 36" fill="none" xmlns="http://www.w3.org/2000/svg">
<path d="M64.2455 16.7464C63.161 16.7464 62.1367 16.4838 61.2372 16.0233L66.307 13.0968L58.0051 8.30251C58.8487 5.68586 61.3233 3.79224 64.2455 3.79224C67.8649 3.79224 70.7957 6.69293 70.7957 10.2693C70.7957 13.8457 67.8649 16.7464 64.2455 16.7464Z" fill="#121535"/>
<path d="M54.8635 19.7031V6.49072L58.0052 8.30258C57.8073 8.92231 57.6997 9.58078 57.6997 10.2694C57.6997 12.7741 59.1371 14.9475 61.2416 16.0234L54.8678 19.7031H54.8635Z" fill="#121535"/>
<path d="M6.89021 31.0821L6.66211 26.9806C8.43954 26.9806 9.76077 26.5589 10.6258 25.7153C11.4909 24.8718 11.9212 23.6022 11.9212 21.9023V7.02869H16.6166V21.8463C16.6166 24.0412 16.2895 25.8186 15.631 27.1743C14.9769 28.53 13.9354 29.5241 12.5065 30.1482C11.0777 30.7722 9.2056 31.0864 6.89021 31.0864V31.0821Z" fill="#121535"/>
<path d="M30.724 30.3547C28.9853 30.3547 27.3844 30.0578 25.9125 29.4639C24.4449 28.87 23.1667 28.0351 22.0865 26.9634C21.002 25.8918 20.1671 24.6351 19.5688 23.1891C18.9749 21.7473 18.678 20.1722 18.678 18.4636C18.678 16.7551 18.9749 15.1799 19.5688 13.7296C20.1628 12.2792 21.002 11.0225 22.0865 9.95522C23.1667 8.8879 24.4449 8.05729 25.9125 7.46338C27.3801 6.86946 28.9853 6.57251 30.724 6.57251C32.4627 6.57251 34.0637 6.86946 35.527 7.46338C36.9902 8.05729 38.2598 8.8879 39.3314 9.95522C40.403 11.0225 41.238 12.2792 41.8405 13.7296C42.443 15.1799 42.74 16.7551 42.74 18.4636C42.74 20.1722 42.4387 21.7473 41.8405 23.1891C41.2423 24.6308 40.403 25.8918 39.3314 26.9634C38.2598 28.0351 36.9902 28.87 35.527 29.4639C34.0637 30.0578 32.4627 30.3547 30.724 30.3547ZM30.724 26.2533C31.7483 26.2533 32.7037 26.0553 33.5817 25.6594C34.4596 25.2635 35.2257 24.7126 35.8756 24.0068C36.5254 23.301 37.0332 22.479 37.3948 21.5365C37.7563 20.5983 37.937 19.574 37.937 18.4636C37.937 17.3533 37.7563 16.329 37.3948 15.3822C37.0332 14.4354 36.5297 13.6134 35.8756 12.9032C35.2257 12.1974 34.4596 11.6466 33.5817 11.2549C32.7037 10.8633 31.7483 10.6696 30.724 10.6696C29.6997 10.6696 28.7271 10.8676 27.8492 11.2549C26.9712 11.6466 26.2008 12.1931 25.5467 12.9032C24.8925 13.6134 24.3847 14.4354 24.0232 15.3822C23.6617 16.329 23.4809 17.3533 23.4809 18.4636C23.4809 19.574 23.6617 20.5983 24.0232 21.5451C24.3847 22.4919 24.8925 23.3182 25.5467 24.024C26.2008 24.7298 26.9712 25.2807 27.8492 25.6723C28.7271 26.064 29.6868 26.2576 30.724 26.2576V26.2533Z" fill="#121535"/>
<path d="M59.7481 29.8985H44.8057V7.02869H49.501V25.7971H59.7481V29.8985Z" fill="#121535"/>
<path d="M68.6656 29.8985H63.9702V18.8552H68.6656V29.8985Z" fill="#121535"/>
<path d="M93.5925 29.8985H88.1956L77.5095 14.2847V29.8985H72.8142V7.02869H78.211L88.8971 22.6726V7.02869H93.5925V29.8985Z" fill="#121535"/>
<path d="M107.192 29.8985H102.497V11.1301H95.7573V7.02869H113.945V11.1301H107.192V29.8985Z" fill="#121535"/>
</svg>
